<?xml version="1.0" standalone="no"?>
<!DOCTYPE svg PUBLIC "-//W3C//DTD SVG 20010904//EN"
 "http://www.w3.org/TR/2001/REC-SVG-20010904/DTD/svg10.dtd">
<svg version="1.0" xmlns="http://www.w3.org/2000/svg"
 width="700.000000pt" height="700.000000pt" viewBox="0 0 700.000000 700.000000"
 preserveAspectRatio="xMidYMid meet">
<metadata>
Created by potrace 1.11, written by Peter Selinger 2001-2013
</metadata>
<g transform="translate(0.000000,700.000000) scale(0.100000,-0.100000)"
fill="#000000" stroke="none">
<path d="M0 3500 l0 -3500 3500 0 3500 0 0 218 0 219 -3275 0 c-1801 0 -3278
3 -3282 6 -3 4 -6 1382 -6 3063 l0 3057 3279 1 3279 1 3 218 2 217 -3500 0
-3500 0 0 -3500z"/>
<path d="M882 6115 c-8 -12 -10 -1734 -2 -1736 3 -1 101 -2 218 -3 l212 -1 1
30 c0 16 1 213 1 438 l0 407 219 0 219 0 0 219 0 220 -217 -1 -218 0 -2 198
c-1 110 -2 208 -2 219 -1 20 -7 20 -212 20 -132 0 -213 -3 -217 -10z"/>
<path d="M1750 5908 c0 -167 3 -218 13 -219 15 -1 838 0 852 0 7 1 10 77 10
218 l0 218 -437 0 -438 0 0 -217z"/>
<path d="M3500 4813 l0 -1313 219 0 218 0 1 403 c0 221 1 418 1 437 l1 36 655
-2 655 -2 0 877 0 877 -875 0 -875 0 0 -1313z m1310 841 c1 -19 1 -207 1 -419
0 -212 0 -394 -1 -404 0 -19 -13 -19 -435 -19 -394 0 -435 2 -436 17 -1 20 -1
855 0 857 1 1 197 2 436 2 l435 -1 0 -33z"/>
<path d="M6127 3926 c-2 -6 -3 -202 -3 -436 l1 -425 435 0 435 0 0 435 0 435
-432 1 c-306 1 -433 -2 -436 -10z"/>
<path d="M1311 2625 l0 -875 657 -2 657 -3 0 -215 0 -215 -615 -2 c-338 0
-634 -2 -657 -2 l-42 -1 0 -215 c0 -118 3 -215 7 -216 4 -1 397 -2 875 -4 635
-2 867 1 868 9 1 6 2 597 3 1313 l1 1303 -220 0 -220 0 1 -647 c0 -357 -1
-652 -3 -658 -2 -6 -124 -9 -346 -8 -188 1 -384 2 -434 3 l-93 0 0 655 0 655
-219 0 -219 0 -1 -875z"/>
<path d="M4811 3378 c0 -68 0 -166 0 -220 l-1 -96 -215 1 c-136 1 -216 -2
-218 -8 -2 -5 -3 -104 -3 -220 l1 -210 212 0 c116 0 215 -3 218 -7 4 -3 6
-398 6 -877 l-1 -870 438 2 437 3 2 217 3 217 -73 1 c-39 0 -138 1 -220 1
l-147 0 2 656 3 657 215 0 215 0 2 218 3 217 -23 1 c-12 0 -110 1 -217 2
l-195 2 -3 218 -2 217 -220 0 -220 0 1 -122z"/>
</g>
</svg>
